<?xml version="1.0" encoding="UTF-8" standalone="no"?>
<svg xmlns:dc="http://purl.org/dc/elements/1.1/" xmlns:cc="http://creativecommons.org/ns#" xmlns:rdf="http://www.w3.org/1999/02/22-rdf-syntax-ns#" xmlns:svg="http://www.w3.org/2000/svg" xmlns="http://www.w3.org/2000/svg" width="161.32893mm" height="40.94355mm" viewBox="0 0 161.32893 40.94355" version="1.1" id="svg8">
  <defs id="defs2"/>
  <metadata id="metadata5">
    <rdf:RDF>
      <cc:Work rdf:about="">
        <dc:format>image/svg+xml</dc:format>
        <dc:type rdf:resource="http://purl.org/dc/dcmitype/StillImage"/>
        <dc:title/>
      </cc:Work>
    </rdf:RDF>
  </metadata>
  <g id="layer1" transform="translate(-22.962952,22.601586)">
    <path id="path4571" d="M 45.122406,-22.597958 C 39.813841,-22.496929 33.42118,-21.575056 29.708359,-19.346993 27.314337,-17.895769 24.370716,-14.940596 23.467397,-10.390951 22.564078,-5.8413056 22.981633,-1.4101666 23.87254,3.1441404 24.763448,7.6984454 26.547906,12.796826 31.491196,15.422977 36.434487,18.049125 39.74984,18.360698 46.524905,18.341145 53.29997,18.360698 56.615323,18.049127 61.558613,15.422977 66.501899,12.796826 68.28636,7.6984454 69.177268,3.1441404 70.068175,-1.4101666 70.48573,-5.8413056 69.582411,-10.390951 68.679092,-14.940596 65.73547,-17.895769 63.341449,-19.346993 58.51766,-22.000499 53.210544,-22.509459 47.927403,-22.597958 46.96517,-22.591553 46.013395,-22.608692 45.122406,-22.597958 Z M 52.035163,-21.373226 C 53.995427,-21.18621 58.900418,-20.806035 62.571469,-18.617322 66.24252,-16.428608 67.883466,-13.645269 68.569036,-10.269511 69.254608,-6.8937526 69.19495,-2.6243956 68.245025,2.7793044 67.295099,8.1830064 64.637023,12.678935 61.031512,14.572383 57.425998,16.465834 52.848731,17.467835 46.524905,17.370146 40.201079,17.467835 35.623809,16.465832 32.018296,14.572383 28.412785,12.678935 25.754708,8.1830064 24.804783,2.7793044 23.854857,-2.6243956 23.795199,-6.8937526 24.480771,-10.269511 25.166341,-13.645269 26.807287,-16.428608 30.478338,-18.617322 34.14939,-20.806034 39.054383,-21.18621 41.014647,-21.373226 44.675544,-21.677106 48.42022,-21.700949 52.035163,-21.373226 Z M 45.308958,-20.433749 C 42.299754,-20.396227 39.078366,-20.027985 36.873813,-19.554216 34.354325,-19.012766 33.49289,-18.821586 31.320147,-17.521782 29.147402,-16.221976 26.475714,-13.575507 25.655893,-9.5005656 24.836064,-5.4256266 25.215269,-1.4563896 26.02383,2.6227254 26.832394,6.7018444 28.451753,11.268357 32.938136,13.620503 40.394345,17.503913 52.842567,17.349299 60.111673,13.620503 64.598056,11.268359 66.217414,6.7018444 67.025978,2.6227254 67.834539,-1.4563896 68.213743,-5.4256256 67.393913,-9.5005656 66.574091,-13.575507 63.902405,-16.221975 61.72966,-17.521782 59.556918,-18.821586 58.69548,-19.012767 56.175996,-19.554216 53.971442,-20.027985 50.750056,-20.396227 47.740851,-20.433749 46.906513,-20.427408 46.081563,-20.442877 45.308958,-20.433749 Z M 51.227459,-18.474178 C 52.045588,-18.397449 53.459587,-18.280368 55.058234,-17.9724 55.294891,-17.923666 55.428053,-17.847129 55.376044,-17.622034 52.805191,-11.386568 50.059165,-5.1486346 47.194631,1.0869014 46.808488,1.9138384 46.320569,1.9456654 45.925458,1.2398644 43.035452,-5.0466436 40.26565,-11.335558 37.673764,-17.622034 37.621756,-17.847131 37.754918,-17.923664 37.991574,-17.9724 39.590223,-18.280368 41.004219,-18.397449 41.822349,-18.474178 44.946468,-18.731222 48.152846,-18.748631 51.227459,-18.474178 Z M 35.406719,-17.294405 C 35.553102,-17.298116 35.60211,-17.201438 35.596889,-17.018453 L 35.598956,-17.024138 V -6.5317546 C 35.598956,-3.2201886 36.140373,-1.6670006 37.605035,1.0331584 L 44.624246,13.958984 C 44.863911,14.415729 44.475131,14.385884 44.052704,14.390482 39.867407,14.210748 36.662772,13.396988 34.051763,12.049023 30.93736,10.441182 28.64115,6.6237844 27.820619,2.0351644 27.000083,-2.5534506 26.948345,-6.1787296 27.540533,-9.0452966 28.132724,-11.91186 29.550082,-14.275697 32.721095,-16.134269 33.511784,-16.597702 34.368907,-16.965563 35.236187,-17.259266 35.303417,-17.281024 35.360343,-17.293229 35.406719,-17.294405 Z M 57.643089,-17.294405 C 57.689465,-17.293229 57.74639,-17.281024 57.813621,-17.259266 58.680899,-16.965563 59.538024,-16.597702 60.328713,-16.134269 63.499725,-14.275697 64.917085,-11.91186 65.509275,-9.0452966 66.101463,-6.1787306 66.049724,-2.5534506 65.229187,2.0351644 64.408656,6.6237844 62.112449,10.441179 58.998044,12.049023 56.387038,13.396988 53.182402,14.210748 48.997105,14.390482 48.574678,14.385884 48.185897,14.415726 48.425564,13.958984 L 55.444772,1.0331584 C 56.909437,-1.6669986 57.450853,-3.2201886 57.450853,-6.5317546 V -17.024138 L 57.45292,-17.018453 C 57.4477,-17.201438 57.496706,-17.298117 57.643089,-17.294405 Z" style="opacity:1;fill:#0b457f;fill-opacity:1;stroke:none;stroke-width:0.26458335px;stroke-linecap:butt;stroke-linejoin:miter;stroke-opacity:1"/>
    <path id="path4603" transform="matrix(0.26458333,0,0,0.26458333,23.081354,20.01941)" d="M 352.20312,-149.21484 V -143.10742 H 316.91406 V -126.0293 L 329.46094,-125.91602 V -134.04492 C 329.4485,-135.17215 330.35091,-135.54095 331.84375,-135.42188 H 387.36328 C 388.0134,-135.42723 389.50191,-135.28071 389.52734,-134.17188 V -126.0293 L 402.08203,-126.14258 402.01367,-136.23047 C 402.04935,-140.65233 398.66955,-142.69391 394.95703,-142.76758 H 365.88867 V -149.21484 Z M 451.78906,-148.69727 439.92773,-126.5293 H 451.40039 L 455.87305,-134.69727 H 504.58008 V -141.30859 L 460.53906,-141.59961 465.49805,-148.59961 Z M 547.94141,-148.69727 542.69141,-140.91992 520.29297,-140.84961 V -134.10742 L 535.88672,-134.12109 C 536.85409,-134.12839 537.32782,-133.55153 536.95508,-132.94727 L 525.38672,-115.73828 C 523.71352,-112.99075 523.97255,-108.62456 528.69141,-108.54492 L 560.83984,-108.42969 560.93164,-96.931641 H 519.25586 V -89.669922 L 560.83984,-89.582031 560.92969,-72.724609 H 573.54492 L 573.63477,-89.582031 608.82227,-89.669922 V -96.931641 H 573.54492 L 573.63477,-108.42969 603.98047,-108.51758 V -114.74023 L 573.70508,-114.76562 573.54883,-127.36328 H 560.92773 L 560.96875,-114.86328 542.98438,-115.05859 C 540.08914,-114.90761 539.63117,-116.33404 540.55273,-117.68359 L 551.83008,-134.01562 607.43945,-134.10742 V -140.8457 L 557.17773,-140.91992 562.31055,-148.63086 Z M 225.32422,-147.76562 V -119.27734 L 211.83789,-119.0625 V -111.80078 H 225.32422 V -78.412109 C 225.56599,-75.323033 227.62341,-73.848795 230.57227,-73.166016 H 253.57812 V -80.335938 H 239.89258 C 239.02061,-79.691793 237.51741,-80.673348 237.62891,-82.597656 V -112.00391 H 251.42773 C 261.85604,-96.744075 270.28774,-80.754168 301.4043,-73.070312 L 301.08008,-81.806641 C 286.90505,-87.951117 272.57925,-93.777969 263.98242,-111.66602 H 301.41992 V -118.9043 H 237.51758 V -147.74414 Z M 429.13672,-146.94727 416.01172,-146.84961 C 419.41155,-143.01095 422.16675,-139.84205 426.99805,-131.7793 H 438.17773 C 435.46759,-136.77409 433.074,-141.70705 429.13672,-146.94727 Z M 279.47852,-146.38867 C 268.28112,-138.72273 258.57909,-131.55424 252.78516,-125.68945 L 265.79297,-125.57617 C 276.49449,-134.78934 286.81475,-139.82319 297.23438,-145.93555 Z M 346.40039,-128.37891 339.83789,-118.77734 H 314.58398 V -111.74609 H 334.29688 C 334.79124,-111.28435 334.16583,-110.45721 333.51953,-109.61523 L 328.60938,-101.88477 C 327.81552,-100.43291 327.74624,-98.946128 329.5332,-97.365234 L 348.7832,-88.46875 C 349.58405,-88.071563 350.47495,-87.68939 348.88086,-86.914062 339.81237,-84.440829 329.80448,-82.22698 314.58398,-81.419922 V -72.71875 C 332.98737,-74.603083 350.44926,-77.118446 362.44336,-82.976562 362.73559,-83.219131 362.84789,-83.611649 364.19336,-82.976562 376.9411,-79.149356 389.42244,-75.006083 404.0293,-72.914062 V -81.419922 C 394.62935,-83.212748 384.88529,-85.527266 374.44922,-88.615234 373.66663,-89.079799 373.69521,-89.624748 374.20703,-90.21875 382.68727,-95.988335 387.01299,-103.66744 390.49023,-111.74609 H 404.0293 V -118.77734 H 354.85938 C 354.45308,-119.001 353.69754,-118.95003 354.13086,-119.77344 L 360.25586,-127.21094 C 360.55849,-127.61603 360.59328,-127.97382 360.64453,-128.37891 Z M 455.2793,-127.88086 V -121.48438 H 500.92773 V -127.88086 Z M 429.23438,-124.58594 416.69336,-124.39062 C 420.25817,-119.74499 423.82191,-115.31029 427.38672,-108.15625 428.02497,-105.97791 428.01209,-103.68939 427.0957,-101.25195 424.32799,-91.331173 421.01307,-82.13986 417.4707,-73.251953 L 429.13672,-73.15625 C 432.81261,-83.040463 435.49821,-92.924381 437.88672,-102.80859 438.98497,-108.77127 437.80917,-109.69155 436.91406,-112.04492 434.73637,-116.73546 432.18978,-120.93237 429.23438,-124.58594 Z M 446.11523,-114.74023 V -107.99805 L 484.16406,-107.86328 C 486.0892,-108.00878 486.46198,-106.82359 486.5957,-105.43359 L 486.69141,-88.515625 C 486.91077,-80.636947 496.59079,-73.142501 506.11523,-72.896484 L 506.28711,-80.8125 C 501.07654,-82.076091 498.45984,-87.643274 498.45508,-90.947266 V -108.93359 C 498.38742,-111.2979 496.4381,-114.32514 492.62305,-114.66992 Z M 347.78711,-111.74609 H 377.9668 C 376.22829,-104.53555 370.79011,-98.171826 362.08594,-92.427734 355.14359,-94.605725 348.54354,-97.126314 342.15039,-99.853516 340.21338,-100.93054 340.46726,-102.00696 341.25586,-103.08398 Z" style="fill:#0b457f;fill-opacity:1;stroke:none;stroke-width:0.99999994px;stroke-linecap:butt;stroke-linejoin:miter;stroke-opacity:1"/>
    <path id="path4530" d="M 85.349614,4.374753 C 82.023199,4.374753 79.252312,5.448382 79.252312,9.689155 79.327492,13.940634 82.938466,14.986507 85.588328,14.986507 H 90.636629 V 12.899813 L 86.084455,12.928234 C 85.062346,12.928234 82.576656,12.557912 82.576656,9.707242 82.502973,6.742843 85.177661,6.485733 86.244652,6.485733 H 90.636629 V 4.391805 Z M 146.33039,4.374753 C 144.66739,4.392485 140.23257,4.889605 140.23257,9.689155 140.23257,14.250819 143.7201,14.986507 146.28543,14.986507 H 151.6174 152.92327 C 153.08208,14.986507 153.21627,14.870223 153.21627,14.679548 V 8.984805 C 153.21627,8.859265 153.13348,8.772416 153.00336,8.772416 L 147.95819,8.761047 V 10.717 H 150.11258 C 150.36504,10.717 150.42842,10.99812 150.39422,10.99812 V 12.652282 C 150.39422,12.804214 150.33888,12.917953 150.13997,12.906531 L 146.38982,12.928234 C 145.72556,12.928234 143.55691,12.541636 143.55691,9.644713 143.55691,6.638204 145.63097,6.485733 146.55053,6.485733 H 153.24004 V 4.391805 Z M 113.21768,4.391805 108.71718,14.964804 111.31805,14.986507 114.76177,6.777706 C 114.87248,6.509556 115.22772,6.542524 115.3328,6.816979 L 118.90054,14.987023 122.22023,14.986507 117.99051,5.330766 C 117.57167,4.459935 117.1584,4.391802 116.36167,4.391805 Z M 126.0939,4.391805 124.70173,4.392321 124.72292,14.96687 127.17858,14.989608 V 8.800838 C 127.26232,8.817332 127.37074,8.654811 127.79405,8.976021 L 133.91461,14.336934 C 134.21081,14.61953 134.68822,14.987023 135.51606,14.987023 H 136.87102 C 137.0618,14.987023 137.2281,14.829438 137.2281,14.543124 L 137.25342,4.392321 134.77295,4.391805 134.76572,10.094817 C 134.76572,10.671219 134.32649,10.686534 133.91926,10.2793 L 127.82351,5.027424 C 127.48573,4.724818 127.15353,4.391805 126.0939,4.391805 Z M 160.34245,4.391805 155.84195,14.964804 158.44231,14.986507 161.88654,6.777706 C 161.99725,6.509556 162.35249,6.542524 162.45757,6.816979 L 166.02479,14.987023 169.345,14.986507 165.11477,5.330766 C 164.69593,4.459935 164.28317,4.391802 163.48645,4.391805 Z M 173.13237,4.391805 171.74021,4.392321 171.76139,14.96687 174.21706,14.989608 V 8.800838 C 174.3008,8.817332 174.40921,8.654811 174.83252,8.976021 L 180.95308,14.336934 C 181.24928,14.61953 181.72669,14.987023 182.55453,14.987023 H 183.90949 C 184.10027,14.987023 184.26657,14.829438 184.26657,14.543124 L 184.29189,4.392321 181.81142,4.391805 181.80419,10.094817 C 181.80419,10.671219 181.36496,10.686534 180.95773,10.2793 L 174.86198,5.027424 C 174.5242,4.724818 174.192,4.391805 173.13237,4.391805 Z M 93.994565,4.392321 V 14.987023 H 96.963375 V 10.57644 H 103.15473 V 14.987023 H 106.2517 V 4.392321 H 103.15473 V 8.367789 H 96.963375 V 4.392321 Z" style="opacity:1;fill:#0b457f;fill-opacity:1;stroke:none;stroke-width:0.26458332px;stroke-linecap:butt;stroke-linejoin:miter;stroke-opacity:1"/>
    <path id="path4667" d="M 83.010726,-18.890234 V -18.858336 H 83.045402 V -18.890234 Z M 82.927827,-18.888582 C 82.91616,-18.888582 82.905583,-18.887055 82.896095,-18.884002 82.886717,-18.881058 82.878975,-18.877022 82.872868,-18.871898 82.866545,-18.866663 82.861802,-18.860721 82.858638,-18.854069 82.855585,-18.847418 82.854058,-18.840329 82.854058,-18.832803 82.854058,-18.82081 82.857383,-18.810668 82.864034,-18.802381 82.870796,-18.794202 82.882191,-18.787985 82.898223,-18.783734 82.904002,-18.782206 82.910381,-18.780788 82.917359,-18.77948 82.924448,-18.778172 82.930172,-18.777028 82.934535,-18.776044 82.94631,-18.773427 82.954272,-18.770265 82.958417,-18.766558 82.96256,-18.76285 82.964631,-18.757398 82.964631,-18.750202 82.964631,-18.740822 82.960815,-18.733953 82.953182,-18.729591 82.945547,-18.72523 82.93497,-18.723048 82.92145,-18.723048 82.910544,-18.723048 82.899147,-18.725174 82.887263,-18.729427 82.875377,-18.73379 82.86458,-18.739623 82.854876,-18.74693 H 82.85324 V -18.712417 C 82.860875,-18.708598 82.870307,-18.705056 82.881536,-18.701784 82.892879,-18.698622 82.905309,-18.69704 82.91883,-18.69704 82.942714,-18.69704 82.961522,-18.702384 82.975264,-18.71307 82.989111,-18.723757 82.996037,-18.737441 82.996037,-18.754125 82.996037,-18.76743 82.992166,-18.778116 82.984424,-18.786188 82.976681,-18.794147 82.965667,-18.799763 82.951382,-18.803035 82.946693,-18.804126 82.940803,-18.805324 82.933717,-18.806632 82.926737,-18.807942 82.920412,-18.80925 82.914744,-18.810559 82.904491,-18.812957 82.897076,-18.816066 82.892498,-18.819881 82.887807,-18.823699 82.885462,-18.829369 82.885462,-18.836893 82.885462,-18.845399 82.889334,-18.851778 82.897076,-18.856032 82.90482,-18.860392 82.914306,-18.862572 82.925538,-18.862572 82.936334,-18.862572 82.947346,-18.860555 82.95858,-18.856521 82.969812,-18.852596 82.97935,-18.847744 82.987203,-18.841963 H 82.988839 V -18.874842 C 82.981424,-18.878658 82.9721,-18.881876 82.960869,-18.884492 82.949748,-18.887218 82.938732,-18.888582 82.927827,-18.888582 Z M 82.974577,-18.827751 V -18.801904 H 83.012688 V -18.654692 C 83.012688,-18.645861 83.012307,-18.638389 83.011544,-18.632284 83.010889,-18.626067 83.009361,-18.620778 83.006964,-18.616415 83.004564,-18.612055 83.000965,-18.608783 82.996167,-18.606602 82.99137,-18.60442 82.985044,-18.603332 82.977194,-18.603332 82.972288,-18.603332 82.967216,-18.604096 82.961981,-18.605621 82.956857,-18.607149 82.952766,-18.608511 82.949713,-18.60971 H 82.948077 V -18.580432 C 82.952875,-18.579124 82.958819,-18.578032 82.965908,-18.577159 82.973104,-18.576287 82.978883,-18.575852 82.983245,-18.575852 83.001565,-18.575852 83.016176,-18.581304 83.027081,-18.592207 83.037986,-18.603112 83.043439,-18.619253 83.043439,-18.640626 V -18.827751 Z M 83.127154,-18.822761 C 83.116142,-18.822761 83.104963,-18.82178 83.093622,-18.819815 83.082282,-18.817853 83.073613,-18.816056 83.067615,-18.814419 V -18.783177 H 83.069251 C 83.07983,-18.787211 83.09008,-18.790263 83.100002,-18.792337 83.109926,-18.794517 83.11892,-18.795607 83.126991,-18.795607 83.133642,-18.795607 83.140024,-18.795172 83.146129,-18.7943 83.152234,-18.793427 83.157472,-18.791736 83.16183,-18.78923 83.166412,-18.78661 83.169902,-18.783014 83.1723,-18.778433 83.174809,-18.773853 83.176064,-18.768074 83.176064,-18.761094 V -18.756351 C 83.158179,-18.755479 83.14144,-18.754171 83.125846,-18.752426 83.110252,-18.750681 83.096895,-18.747356 83.085772,-18.742448 83.074758,-18.737541 83.066253,-18.730779 83.060254,-18.722165 83.054366,-18.713659 83.051422,-18.702482 83.051422,-18.688633 83.051422,-18.671731 83.057147,-18.657828 83.068598,-18.646923 83.080045,-18.636017 83.094005,-18.630565 83.11047,-18.630565 83.119412,-18.630565 83.12721,-18.631437 83.133862,-18.633182 83.140513,-18.634819 83.146403,-18.63689 83.151527,-18.639399 83.15589,-18.641361 83.160359,-18.643977 83.164939,-18.647249 83.169628,-18.65063 83.173336,-18.653248 83.176064,-18.655101 V -18.635637 H 83.206649 V -18.759621 C 83.206649,-18.771399 83.20485,-18.781269 83.201253,-18.78923 83.197655,-18.797189 83.19242,-18.803677 83.185551,-18.808693 83.178571,-18.813819 83.170283,-18.817418 83.160685,-18.819489 83.151199,-18.821671 83.140024,-18.822761 83.127154,-18.822761 Z M 83.176064,-18.731488 V -18.680617 C 83.168429,-18.67473 83.160141,-18.669658 83.151199,-18.665406 83.142258,-18.661261 83.132389,-18.65919 83.121595,-18.65919 83.108616,-18.65919 83.098966,-18.661807 83.092641,-18.667042 83.086318,-18.672384 83.083154,-18.680291 83.083154,-18.690759 83.083154,-18.70003 83.085881,-18.70728 83.091333,-18.712515 83.096786,-18.717859 83.103929,-18.721784 83.112761,-18.72429 83.120176,-18.726362 83.130206,-18.727944 83.142857,-18.729036 83.155616,-18.730126 83.166684,-18.730944 83.176064,-18.731488 Z" style="font-style:normal;font-weight:normal;font-size:medium;line-height:1.25;font-family:sans-serif;letter-spacing:0px;word-spacing:0px;fill:#0000ff;fill-opacity:1;stroke:none;stroke-width:0.26458326"/>
  </g>
</svg>