<?xml version="1.0" encoding="UTF-8" standalone="no"?>
<!-- Created with Inkscape (http://www.inkscape.org/) -->
<svg xmlns:dc="http://purl.org/dc/elements/1.1/" xmlns:cc="http://creativecommons.org/ns#" xmlns:rdf="http://www.w3.org/1999/02/22-rdf-syntax-ns#" xmlns:svg="http://www.w3.org/2000/svg" xmlns="http://www.w3.org/2000/svg" xmlns:sodipodi="http://sodipodi.sourceforge.net/DTD/sodipodi-0.dtd" xmlns:inkscape="http://www.inkscape.org/namespaces/inkscape" id="svg2440" sodipodi:version="0.32" inkscape:version="0.46" width="300" height="65" version="1.0" sodipodi:docname="fiat_logo_70er.svg" inkscape:output_extension="org.inkscape.output.svg.inkscape">
  <sodipodi:namedview inkscape:window-height="883" inkscape:window-width="1175" inkscape:pageshadow="2" inkscape:pageopacity="0.0" guidetolerance="10.0" gridtolerance="10.0" objecttolerance="10.0" borderopacity="1.0" bordercolor="#666666" pagecolor="#ffffff" id="base" showgrid="false" inkscape:zoom="3.2285714" inkscape:cx="253.98712" inkscape:cy="30.5" inkscape:window-x="22" inkscape:window-y="29" inkscape:current-layer="svg2440"/>
  <metadata id="metadata2445">
    <rdf:RDF>
      <cc:Work rdf:about="">
        <dc:format>image/svg+xml</dc:format>
        <dc:type rdf:resource="http://purl.org/dc/dcmitype/StillImage"/>
      </cc:Work>
    </rdf:RDF>
  </metadata>
  <defs id="defs2443">
    <inkscape:perspective sodipodi:type="inkscape:persp3d" inkscape:vp_x="0 : 32.5 : 1" inkscape:vp_y="0 : 1000 : 0" inkscape:vp_z="300 : 32.5 : 1" inkscape:persp3d-origin="150 : 21.666667 : 1" id="perspective2435"/>
  </defs>
  <rect style="opacity:1;fill:#ffffff;fill-opacity:1;stroke:none;stroke-width:0.62400001000000005;stroke-miterlimit:4;stroke-dasharray:none;stroke-dashoffset:0;stroke-opacity:1" id="rect3207" width="49.80582" height="55.719521" x="25.481232" y="5.4640522" transform="matrix(1,0,-0.2671317,0.96366,0,0)" inkscape:transform-center-x="-28.648076" inkscape:transform-center-y="-26.847352"/>
  <rect style="opacity:1;fill:#ffffff;fill-opacity:1;stroke:none;stroke-width:0.62400001;stroke-miterlimit:4;stroke-dasharray:none;stroke-dashoffset:0;stroke-opacity:1" id="rect3215" width="49.80582" height="55.719521" x="97.660759" y="6.0035768" transform="matrix(1,0,-0.2671317,0.96366,0,0)" inkscape:transform-center-x="-28.648076" inkscape:transform-center-y="-26.847352"/>
  <rect style="opacity:1;fill:#ffffff;fill-opacity:1;stroke:none;stroke-width:0.62400001;stroke-miterlimit:4;stroke-dasharray:none;stroke-dashoffset:0;stroke-opacity:1" id="rect3217" width="49.80582" height="55.719521" x="169.32137" y="5.8428693" transform="matrix(1,0,-0.2671317,0.96366,0,0)" inkscape:transform-center-x="-28.648076" inkscape:transform-center-y="-26.847352"/>
  <rect style="opacity:1;fill:#ffffff;fill-opacity:1;stroke:none;stroke-width:0.62400001;stroke-miterlimit:4;stroke-dasharray:none;stroke-dashoffset:0;stroke-opacity:1" id="rect3219" width="49.80582" height="55.719521" x="240.71516" y="5.8428679" transform="matrix(1,0,-0.2671317,0.96366,0,0)" inkscape:transform-center-x="-28.648076" inkscape:transform-center-y="-26.847352"/>
  <path style="fill:#0b2d84;fill-opacity:1" d="M 0,65 L 18.744625,0 L 85.580233,0 L 66.164077,65 L 0,65 z M 37.794062,36 L 55.326217,36 L 57.025733,29 L 40.135508,29 L 43.335484,19.241 L 61.017986,19.241 L 63.221881,11.14 L 35.290781,11.14 L 22,53.668 L 32.555031,53.668 L 37.794062,36 z M 70.004112,65 L 89.968126,0 L 156.84687,0 L 137.43071,65 L 70.004112,65 z M 123.8608,11.14 L 112.96848,11.14 L 100.01382,53.668 L 110.2315,53.668 L 123.8608,11.14 z M 141.52913,65 L 161.35011,0 L 228.25137,0 L 208.61073,65 L 141.52913,65 z M 174,45.061 L 188.18942,45.061 L 188.80673,53.667597 L 198.96017,53.667597 L 195.57894,11.14 L 186.78568,11.14 L 158.58836,53.668 L 168,53.668 L 174,45.061 z M 178.65375,36.454 L 186.74254,22.747967 L 187.68755,36.454 L 178.65375,36.454 z M 232.91504,0 L 299.99994,0 L 280.26829,65 L 212.87659,65 L 232.91504,0 z M 264.32511,19.029 L 277.19995,19.029 L 280.03304,11.14 L 243.92479,11.14 L 240.88658,19.029 L 253.69571,19.029 L 243.00229,53.667597 L 253.58324,53.668 L 264.32511,19.029 z" id="path2451" sodipodi:nodetypes="cccccccccccccccccccccccccccccccccccccccccccccccccccccccccc"/>
</svg>